<?xml version="1.0" standalone="no"?>
<!DOCTYPE svg PUBLIC "-//W3C//DTD SVG 20010904//EN"
 "http://www.w3.org/TR/2001/REC-SVG-20010904/DTD/svg10.dtd">
<svg version="1.0" xmlns="http://www.w3.org/2000/svg"
 width="300.000000pt" height="300.000000pt" viewBox="0 0 300.000000 300.000000"
 preserveAspectRatio="xMidYMid meet">
<metadata>
Created by potrace 1.14, written by Peter Selinger 2001-2017
</metadata>
<g transform="translate(0.000000,300.000000) scale(0.100000,-0.100000)"
fill="#000000" stroke="none">
<path d="M1963 2785 c-26 -12 -88 -55 -138 -95 -49 -39 -99 -77 -109 -82 -36
-19 -136 -12 -261 18 -107 25 -357 25 -490 -1 -109 -21 -237 -81 -318 -147
-101 -82 -320 -304 -358 -362 -48 -72 -74 -158 -104 -336 -3 -19 -8 -42 -10
-50 -2 -8 -7 -42 -10 -75 -4 -33 -8 -67 -10 -75 -5 -18 -11 -74 -25 -225 -6
-60 -13 -121 -15 -135 -2 -14 -6 -55 -10 -92 -9 -93 -19 -124 -62 -186 -32
-46 -37 -62 -38 -113 -3 -130 61 -122 130 17 23 48 31 88 51 269 13 119 53
318 68 332 3 3 12 1 20 -6 17 -14 13 -52 -15 -130 -24 -71 -40 -156 -44 -250
-6 -108 -14 -150 -40 -202 -26 -51 -56 -156 -70 -249 -3 -14 -14 -61 -25 -105
-31 -117 -33 -127 -33 -162 0 -47 38 -86 94 -97 13 -2 43 -9 67 -14 52 -12
141 -8 170 7 31 17 91 13 151 -9 105 -38 320 -1 379 66 30 34 28 67 -8 142
-66 141 -81 233 -53 340 8 31 16 62 17 67 11 55 36 71 121 81 66 7 170 33 203
50 25 13 29 12 44 -7 19 -23 18 -35 -12 -124 -15 -44 -21 -51 -54 -60 -50 -14
-78 -42 -110 -111 -42 -88 -64 -212 -57 -316 1 -18 48 -39 103 -45 35 -4 61 3
232 64 97 35 134 65 187 153 63 106 139 327 165 480 9 49 26 90 35 84 5 -3 8
-50 6 -105 -4 -142 7 -232 36 -282 23 -40 25 -50 22 -177 -1 -99 -6 -145 -19
-174 -9 -21 -16 -51 -16 -67 0 -32 30 -68 58 -70 9 -1 38 -3 65 -4 26 -2 68
-6 95 -10 143 -21 193 -13 237 35 27 30 30 123 5 187 -21 57 -30 120 -35 264
-2 58 -8 132 -14 165 -6 32 -13 95 -16 139 -9 155 -17 270 -21 290 -2 10 -4
52 -5 93 -2 100 9 111 82 86 30 -9 72 -18 94 -19 59 -3 86 -14 123 -48 37 -36
52 -32 87 19 39 57 86 25 110 -76 2 -8 15 -55 29 -104 15 -49 29 -103 32 -120
26 -145 31 -192 32 -284 0 -63 -6 -122 -14 -144 -7 -21 -11 -38 -8 -38 2 0 -5
-19 -17 -42 l-22 -43 -15 33 c-17 35 -44 42 -77 18 -22 -15 -25 -16 -55 -16
-11 0 -30 -10 -41 -21 -27 -27 -21 -75 16 -131 75 -114 275 -100 367 25 139
189 169 500 87 894 -12 56 -19 109 -15 118 3 9 18 20 34 26 36 12 56 43 43 68
-10 18 -78 51 -105 51 -30 0 -48 54 -72 210 -3 19 -7 41 -10 49 -2 8 -7 30
-10 50 -5 32 -31 152 -38 176 -1 6 -8 30 -15 55 -15 51 -63 151 -89 181 -9 11
-30 35 -45 52 -16 18 -44 63 -62 101 -65 130 -116 175 -227 201 -34 8 -74 23
-88 35 -84 67 -184 84 -267 45z"/>
</g>
</svg>
